#!OML:ASF F:\VICON\USERDATA\INSTALL\rory3\rory3.ASF
:FULLY-SPECIFIED
:DEGREES
145
root 10.6608 17.7259 -3.77341 -1.25194 -13.823 -0.101293
lowerback 9.02481 2.88821 1.98266
upperback 1.40696 4.02982 0.161799
thorax -3.46426 1.97452 -1.41662
lowerneck -17.1439 -8.59071 -13.1102
upperneck 26.12 -11.8993 11.5216
head 13.1506 -5.2058 4.62542
rclavicle -4.22417e-016 -4.77083e-015
rhumerus -26.5587 -8.45678 -84.8191
rradius 39.2066
rwrist 3.11809
rhand -15.4209 8.72939
rfingers 7.12502
rthumb 10.7587 -20.9751
lclavicle -4.22417e-016 -4.77083e-015
lhumerus -40.3653 10.7321 77.812
lradius 26.2899
lwrist -11.6514
lhand -13.0922 28.4069
lfingers 7.12502
lthumb 13.0043 57.9816
rfemur 8.15867 9.63332 29.7084
rtibia 25.2205
rfoot -14.3192 4.49183
rtoes 12.137
lfemur -19.6043 -9.48667 -14.7404
ltibia 16.2846
lfoot 2.01592 -18.4927
ltoes -1.45128
146
root 10.6374 17.7304 -3.65464 -1.33716 -14.2892 0.130871
lowerback 9.06825 2.87774 1.67733
upperback 1.39254 3.98547 0.113427
thorax -3.52236 1.95495 -1.29473
lowerneck -17.0329 -8.51652 -13.0748
upperneck 26.0934 -11.822 11.5448
head 13.1033 -5.17125 4.64601
rclavicle 9.19379e-015 9.54166e-015
rhumerus -26.6005 -8.52694 -84.9224
rradius 39.1124
rwrist 3.1349
rhand -15.5167 8.71166
rfingers 7.12502
rthumb 10.6664 -20.9976
lclavicle 9.19379e-015 9.54166e-015
lhumerus -40.323 11.1244 77.5817
lradius 25.8821
lwrist -11.9224
lhand -12.8713 28.5016
lfingers 7.12502
lthumb 13.2172 58.0626
rfemur 8.18071 9.69493 29.4919
rtibia 26.0412
rfoot -14.1195 4.63474
rtoes 11.0436
lfemur -19.3472 -9.55963 -14.981
ltibia 16.6264
lfoot 3.33749 -18.8202
ltoes 2.18202
147
root 10.6142 17.7446 -3.52338 -1.44146 -14.7964 0.419258
lowerback 9.01222 2.89479 1.36029
upperback 1.38531 3.97373 0.0400691
thorax -3.51545 1.95274 -1.18965
lowerneck -16.9682 -8.47588 -12.9705
upperneck 26.1758 -11.7897 11.4642
head 13.1042 -5.15939 4.60663
rclavicle -1.7667e-014 1.07344e-014
rhumerus -26.7488 -8.63078 -84.9878
rradius 39.0474
rwrist 3.2459
rhand -15.3003 8.6954
rfingers 7.12502
rthumb 10.8751 -21.003
lclavicle -1.7667e-014 1.07344e-014
lhumerus -40.4109 11.4257 77.3942
lradius 25.6869
lwrist -12.1291
lhand -12.3381 28.7386
lfingers 7.12502
lthumb 13.7312 58.2655
rfemur 8.07732 9.71962 29.1448
rtibia 27.1162
rfoot -13.7552 5.30933
rtoes 10.9656
lfemur -18.8867 -9.50602 -15.357
ltibia 16.7032
lfoot 4.01203 -18.9863
ltoes 4.44225
148
root 10.5895 17.7627 -3.38926 -1.61742 -15.1846 0.807944
lowerback 9.00173 2.90229 0.965339
upperback 1.38706 3.94122 -0.0666848
thorax -3.52778 1.94077 -1.07557
lowerneck -16.9318 -8.55196 -13.2102
upperneck 26.3719 -11.9502 11.7416
head 13.2434 -5.22243 4.73483
rclavicle -4.79568e-014 -6.55989e-015
rhumerus -26.9583 -8.75992 -85.0299
rradius 38.9624
rwrist 3.29247
rhand -15.1756 8.76456
rfingers 7.12502
rthumb 10.9954 -20.9275
lclavicle -4.79568e-014 -6.55989e-015
lhumerus -40.4692 11.3502 77.407
lradius 25.5708
lwrist -11.9141
lhand -12.4337 28.5513
lfingers 7.12502
lthumb 13.6391 58.0844
rfemur 7.879 9.70838 28.702
rtibia 28.3921
rfoot -12.9561 6.29491
rtoes 11.7116
lfemur -18.2527 -9.28033 -15.9221
ltibia 16.5722
lfoot 4.12473 -18.9927
ltoes 4.60758
149
root 10.5629 17.7789 -3.25654 -1.84682 -15.574 1.23698
lowerback 9.01235 2.90299 0.518248
upperback 1.36876 3.89512 -0.168561
thorax -3.57642 1.92235 -0.927744
lowerneck -16.6381 -8.62287 -13.6926
upperneck 26.4213 -12.1001 12.1863
head 13.3004 -5.29732 4.97671
rclavicle -6.4605e-015 4.96962e-015
rhumerus -27.2872 -8.77484 -85.0858
rradius 38.9179
rwrist 3.12004
rhand -15.3636 8.52638
rfingers 7.12502
rthumb 10.814 -21.1752
lclavicle -6.4605e-015 4.96962e-015
lhumerus -40.5431 11.2897 77.4174
lradius 25.3725
lwrist -11.9011
lhand -12.7903 28.354
lfingers 7.12502
lthumb 13.2953 57.91
rfemur 7.64736 9.58016 28.193
rtibia 29.7815
rfoot -12.0056 6.95643
rtoes 12.3145
lfemur -17.5155 -9.26119 -16.4851
ltibia 16.3906
lfoot 3.19331 -18.2684
ltoes 0.527855
150
root 10.5372 17.7954 -3.12532 -2.02997 -15.9609 1.64448
lowerback 8.98896 2.87161 0.107472
upperback 1.34604 3.80921 -0.282683
thorax -3.60741 1.88403 -0.806159
lowerneck -16.499 -8.62229 -13.838
upperneck 26.5166 -12.1313 12.3133
head 13.3377 -5.31762 5.05409
rclavicle 2.16178e-015 3.97569e-015
rhumerus -27.5628 -8.8212 -85.1839
rradius 38.8055
rwrist 3.11118
rhand -15.5927 8.33112
rfingers 7.12502
rthumb 10.593 -21.3819
lclavicle 2.16178e-015 3.97569e-015
lhumerus -40.6561 11.3859 77.3125
lradius 25.2155
lwrist -12.0586
lhand -12.9382 28.7063
lfingers 7.12502
lthumb 13.1528 58.2714
rfemur 7.31542 9.27909 27.6281
rtibia 31.2607
rfoot -11.091 7.36894
rtoes 12.7423
lfemur -16.8212 -9.15044 -17.0205
ltibia 16.2943
lfoot 1.92943 -17.2015
ltoes -4.49377
151
root 10.5108 17.8123 -2.99345 -2.20126 -16.3284 1.99058
lowerback 8.95913 2.82848 -0.265817
upperback 1.35933 3.71295 -0.354933
thorax -3.59707 1.8406 -0.659303
lowerneck -16.5535 -8.61472 -13.875
upperneck 26.7052 -12.1261 12.3028
head 13.4291 -5.31873 5.06272
rclavicle -4.76214e-014 9.14409e-015
rhumerus -27.6904 -9.00185 -85.2227
rradius 38.4986
rwrist 3.41338
rhand -15.7488 8.35301
rfingers 7.12502
rthumb 10.4425 -21.3677
lclavicle -4.76214e-014 9.14409e-015
lhumerus -40.738 11.6101 77.1761
lradius 25.1425
lwrist -12.1897
lhand -12.641 28.6562
lfingers 7.12502
lthumb 13.4392 58.2026
rfemur 6.90452 8.81062 27.0692
rtibia 32.8186
rfoot -10.0854 7.86597
rtoes 12.4269
lfemur -16.1582 -8.81535 -17.5194
ltibia 16.309
lfoot 0.886399 -16.5249
ltoes -7.62411
152
root 10.4859 17.8237 -2.86493 -2.34409 -16.7076 2.07136
lowerback 8.96238 2.7712 -0.300098
upperback 1.45052 3.63104 -0.40818
thorax -3.50341 1.80038 -0.682473
lowerneck -16.7094 -8.62545 -13.8814
upperneck 26.8208 -12.1689 12.3988
head 13.5268 -5.32127 5.09523
rclavicle -4.13472e-014 1.15295e-014
rhumerus -27.7112 -9.15656 -85.3381
rradius 38.2378
rwrist 3.51868
rhand -15.8952 8.14827
rfingers 7.12502
rthumb 10.3013 -21.5795
lclavicle -4.13472e-014 1.15295e-014
lhumerus -40.6248 11.9928 76.9501
lradius 25.031
lwrist -12.4337
lhand -12.441 28.0385
lfingers 7.12502
lthumb 13.632 57.5721
rfemur 6.44256 8.35077 26.7981
rtibia 34.4284
rfoot -8.71106 8.32437
rtoes 12.7891
lfemur -15.5108 -8.66565 -17.6926
ltibia 16.3805
lfoot 0.456802 -16.3501
ltoes -7.81659
153
root 10.4593 17.8384 -2.73554 -2.4557 -17.0502 2.14282
lowerback 8.98309 2.7107 -0.343739
upperback 1.44806 3.54423 -0.457369
thorax -3.51757 1.75744 -0.699832
lowerneck -16.6985 -8.59876 -13.8515
upperneck 26.8915 -12.202 12.5446
head 13.5698 -5.31732 5.1469
rclavicle 1.78782e-014 -2.5842e-015
rhumerus -28.0128 -9.23703 -85.4242
rradius 38.1281
rwrist 3.47935
rhand -16.206 7.87755
rfingers 7.12502
rthumb 10.0014 -21.8648
lclavicle 1.78782e-014 -2.5842e-015
lhumerus -40.5772 12.1093 76.8333
lradius 24.8813
lwrist -12.4474
lhand -12.3602 28.3073
lfingers 7.12502
lthumb 13.7099 57.8357
rfemur 5.83993 7.82835 26.5012
rtibia 36.1368
rfoot -7.04669 8.83815
rtoes 13.4756
lfemur -14.878 -8.43182 -17.8649
ltibia 16.4101
lfoot 0.386401 -16.8382
ltoes -5.97836
154
root 10.4348 17.8583 -2.59746 -2.66049 -17.4275 2.24536
lowerback 9.012 2.6571 -0.3679
upperback 1.47349 3.46867 -0.497813
thorax -3.50666 1.71996 -0.719821
lowerneck -16.6566 -8.59423 -13.8226
upperneck 26.9628 -12.2211 12.5371
head 13.5912 -5.32642 5.13884
rclavicle -2.73577e-014 3.77691e-015
rhumerus -28.3105 -9.49357 -85.43
rradius 37.9235
rwrist 3.71344
rhand -16.4342 8.01296
rfingers 7.12502
rthumb 9.78128 -21.7399
lclavicle -2.73577e-014 3.77691e-015
lhumerus -40.5303 12.0095 76.86
lradius 24.7574
lwrist -12.2576
lhand -12.307 28.8479
lfingers 7.12502
lthumb 13.7611 58.3728
rfemur 5.24365 7.20915 26.081
rtibia 37.9755
rfoot -5.15146 9.42063
rtoes 14.1893
lfemur -14.0364 -8.07346 -18.1407
ltibia 16.3038
lfoot 0.205624 -17.2898
ltoes -4.30039
155
root 10.4108 17.8771 -2.4622 -2.87895 -17.8159 2.40027
lowerback 9.03296 2.60274 -0.43015
upperback 1.55223 3.38898 -0.525042
thorax -3.4391 1.68106 -0.702286
lowerneck -16.6181 -8.61802 -13.8443
upperneck 26.9156 -12.2132 12.4217
head 13.5535 -5.34134 5.09499
rclavicle -9.56651e-015 1.09332e-014
rhumerus -28.4507 -9.70271 -85.3755
rradius 37.6279
rwrist 3.86496
rhand -16.1485 8.84704
rfingers 7.12502
rthumb 10.0569 -20.8927
lclavicle -9.56651e-015 1.09332e-014
lhumerus -40.4529 11.7811 77.0361
lradius 24.7619
lwrist -12.097
lhand -12.5964 28.6826
lfingers 7.12502
lthumb 13.4822 58.2262
rfemur 4.51623 6.48517 25.5431
rtibia 39.9428
rfoot -3.04721 10.0353
rtoes 14.5523
lfemur -13.1204 -7.81549 -18.4595
ltibia 16.0271
lfoot -0.047171 -17.3412
ltoes -2.75362
